<?xml version="1.0" encoding="UTF-8"?>
<svg version="1.1" xmlns="http://www.w3.org/2000/svg" width="128" height="128">
<path d="M0 0 C1.41822304 -0.01029488 1.41822304 -0.01029488 2.86509705 -0.02079773 C5.98061271 -0.03905147 9.09562413 -0.03523019 12.21118164 -0.02954102 C14.3830227 -0.03410348 16.55486231 -0.03940924 18.72669983 -0.04542542 C23.27521638 -0.05435373 27.82355732 -0.05193647 32.37207031 -0.04199219 C38.19392604 -0.03050282 44.0151752 -0.05071536 49.83695126 -0.07990932 C54.3211704 -0.09827664 58.80524433 -0.09797777 63.28949165 -0.0922718 C65.43564263 -0.09211866 67.5818035 -0.09815755 69.72791862 -0.11056328 C72.73175725 -0.12548119 75.73447705 -0.11478982 78.73828125 -0.09765625 C80.06095001 -0.1121582 80.06095001 -0.1121582 81.41033936 -0.12695312 C88.51075181 -0.04237027 92.55674454 1.72626267 97.83898926 6.64259338 C99.94602149 10.29089187 99.99519683 13.48850573 99.95141602 17.58740234 C99.95842529 18.39779465 99.96543457 19.20818695 99.97265625 20.0431366 C99.99022111 22.71457471 99.97861814 25.38494811 99.96508789 28.05639648 C99.96778351 29.91817935 99.97166651 31.77996084 99.97668457 33.64173889 C99.98257779 37.54140645 99.97402337 41.44070717 99.95532227 45.34033203 C99.93254864 50.33172072 99.94564676 55.3222483 99.96961212 60.31360531 C99.98408843 64.15786692 99.97945544 68.00192548 99.96910095 71.84619331 C99.96643791 73.68614365 99.96968855 75.52611258 99.97901917 77.36604118 C99.9892133 79.94162452 99.9736439 82.51582768 99.95141602 85.09130859 C99.95951294 85.84734375 99.96760986 86.60337891 99.97595215 87.38232422 C99.89403648 92.52278815 98.67600161 95.44468211 95.43383789 99.40405273 C91.26341128 102.42761203 87.53004513 103.52220366 82.43132019 103.54449463 C81.25185066 103.55305984 81.25185066 103.55305984 80.04855347 103.5617981 C79.19496246 103.56291595 78.34137146 103.56403381 77.46191406 103.56518555 C76.10265053 103.5726329 76.10265053 103.5726329 74.71592712 103.58023071 C71.71954589 103.59482975 68.72321759 103.60165057 65.72680664 103.60717773 C63.64178974 103.61293101 61.55677286 103.61868873 59.47175598 103.62445068 C55.09965773 103.63495422 50.72757784 103.64080114 46.35546875 103.64428711 C40.76012028 103.64977065 35.16501529 103.67379856 29.56974316 103.70225906 C25.262266 103.72090568 20.95484725 103.72609213 16.64733315 103.72762299 C14.58490988 103.73064542 12.52248755 103.73866013 10.46010399 103.75180817 C7.57119727 103.7689109 4.68288247 103.76697803 1.79394531 103.76049805 C0.946427 103.76971283 0.09890869 103.77892761 -0.77429199 103.78842163 C-7.54979858 103.7409441 -12.24859222 102.46971286 -17.44116211 97.84155273 C-20.95054597 93.81608302 -20.73057471 90.69753235 -20.7590332 85.5612793 C-20.76721069 84.75132507 -20.77538818 83.94137085 -20.78381348 83.10687256 C-20.80867791 80.41948184 -20.8251871 77.73214401 -20.83959961 75.04467773 C-20.84492329 74.12726555 -20.85024696 73.20985336 -20.85573196 72.26464081 C-20.88246949 67.40779963 -20.90184151 62.5509842 -20.91625977 57.6940918 C-20.93289939 52.67907112 -20.97766955 47.66470865 -21.02863121 42.64993668 C-21.06230232 38.79285942 -21.0738371 34.93593833 -21.07948685 31.07872772 C-21.08620087 29.23035407 -21.10142689 27.38199074 -21.12537766 25.53376007 C-21.15702679 22.94343116 -21.15706667 20.35487611 -21.1496582 17.7644043 C-21.16606354 17.00365601 -21.18246887 16.24290771 -21.19937134 15.45910645 C-21.15306495 11.49480842 -20.57764485 9.42176994 -18.4046936 6.06903076 C-12.52924587 0.5528196 -7.71757354 -0.03930942 0 0 Z " fill="#09090D" transform="translate(24.566162109375,9.595947265625)"/>
<path d="M0 0 C1.41822304 -0.01029488 1.41822304 -0.01029488 2.86509705 -0.02079773 C5.98061271 -0.03905147 9.09562413 -0.03523019 12.21118164 -0.02954102 C14.3830227 -0.03410348 16.55486231 -0.03940924 18.72669983 -0.04542542 C23.27521638 -0.05435373 27.82355732 -0.05193647 32.37207031 -0.04199219 C38.19392604 -0.03050282 44.0151752 -0.05071536 49.83695126 -0.07990932 C54.3211704 -0.09827664 58.80524433 -0.09797777 63.28949165 -0.0922718 C65.43564263 -0.09211866 67.5818035 -0.09815755 69.72791862 -0.11056328 C72.73175725 -0.12548119 75.73447705 -0.11478982 78.73828125 -0.09765625 C80.06095001 -0.1121582 80.06095001 -0.1121582 81.41033936 -0.12695312 C88.51075181 -0.04237027 92.55674454 1.72626267 97.83898926 6.64259338 C99.94602149 10.29089187 99.99519683 13.48850573 99.95141602 17.58740234 C99.95842529 18.39779465 99.96543457 19.20818695 99.97265625 20.0431366 C99.99022111 22.71457471 99.97861814 25.38494811 99.96508789 28.05639648 C99.96778351 29.91817935 99.97166651 31.77996084 99.97668457 33.64173889 C99.98257779 37.54140645 99.97402337 41.44070717 99.95532227 45.34033203 C99.93254864 50.33172072 99.94564676 55.3222483 99.96961212 60.31360531 C99.98408843 64.15786692 99.97945544 68.00192548 99.96910095 71.84619331 C99.96643791 73.68614365 99.96968855 75.52611258 99.97901917 77.36604118 C99.9892133 79.94162452 99.9736439 82.51582768 99.95141602 85.09130859 C99.95951294 85.84734375 99.96760986 86.60337891 99.97595215 87.38232422 C99.89403648 92.52278815 98.67600161 95.44468211 95.43383789 99.40405273 C91.26341128 102.42761203 87.53004513 103.52220366 82.43132019 103.54449463 C81.25185066 103.55305984 81.25185066 103.55305984 80.04855347 103.5617981 C79.19496246 103.56291595 78.34137146 103.56403381 77.46191406 103.56518555 C76.10265053 103.5726329 76.10265053 103.5726329 74.71592712 103.58023071 C71.71954589 103.59482975 68.72321759 103.60165057 65.72680664 103.60717773 C63.64178974 103.61293101 61.55677286 103.61868873 59.47175598 103.62445068 C55.09965773 103.63495422 50.72757784 103.64080114 46.35546875 103.64428711 C40.76012028 103.64977065 35.16501529 103.67379856 29.56974316 103.70225906 C25.262266 103.72090568 20.95484725 103.72609213 16.64733315 103.72762299 C14.58490988 103.73064542 12.52248755 103.73866013 10.46010399 103.75180817 C7.57119727 103.7689109 4.68288247 103.76697803 1.79394531 103.76049805 C0.946427 103.76971283 0.09890869 103.77892761 -0.77429199 103.78842163 C-7.54979858 103.7409441 -12.24859222 102.46971286 -17.44116211 97.84155273 C-20.95054597 93.81608302 -20.73057471 90.69753235 -20.7590332 85.5612793 C-20.76721069 84.75132507 -20.77538818 83.94137085 -20.78381348 83.10687256 C-20.80867791 80.41948184 -20.8251871 77.73214401 -20.83959961 75.04467773 C-20.84492329 74.12726555 -20.85024696 73.20985336 -20.85573196 72.26464081 C-20.88246949 67.40779963 -20.90184151 62.5509842 -20.91625977 57.6940918 C-20.93289939 52.67907112 -20.97766955 47.66470865 -21.02863121 42.64993668 C-21.06230232 38.79285942 -21.0738371 34.93593833 -21.07948685 31.07872772 C-21.08620087 29.23035407 -21.10142689 27.38199074 -21.12537766 25.53376007 C-21.15702679 22.94343116 -21.15706667 20.35487611 -21.1496582 17.7644043 C-21.16606354 17.00365601 -21.18246887 16.24290771 -21.19937134 15.45910645 C-21.15306495 11.49480842 -20.57764485 9.42176994 -18.4046936 6.06903076 C-12.52924587 0.5528196 -7.71757354 -0.03930942 0 0 Z M-5.56616211 20.40405273 C-8.20854504 23.88420882 -8.94455821 26.40936297 -8.97021484 30.74169922 C-8.98289902 31.78305527 -8.99558319 32.82441132 -9.00865173 33.89732361 C-9.00571609 35.01200516 -9.00278046 36.12668671 -8.99975586 37.27514648 C-9.00499771 38.43023209 -9.01023956 39.58531769 -9.01564026 40.77540588 C-9.02205692 43.2154968 -9.02072811 45.65561865 -9.01220703 48.09570312 C-9.00370056 51.82469903 -9.03246052 55.55216135 -9.06420898 59.28100586 C-9.06582121 61.65405228 -9.06524306 64.0271014 -9.06225586 66.40014648 C-9.07348984 67.5128038 -9.08472382 68.62546112 -9.09629822 69.77183533 C-9.04265109 75.74509643 -8.91289905 79.88436991 -4.56616211 84.40405273 C0.08600634 87.23669509 3.58574065 87.7824435 8.99633789 87.79223633 C9.72884766 87.79749329 10.46135742 87.80275024 11.21606445 87.8081665 C13.62220991 87.82130227 16.02768644 87.81265165 18.43383789 87.80249023 C20.11482876 87.80451283 21.79581877 87.80742581 23.47680664 87.81118774 C26.993819 87.81560238 30.51060224 87.80920787 34.02758789 87.79516602 C38.52671549 87.77807454 43.02530614 87.78792035 47.52441406 87.80588341 C50.99377458 87.81674457 54.46300864 87.81326423 57.93237305 87.80550003 C59.59090235 87.80350447 61.24944327 87.80593462 62.90795898 87.81293869 C65.22939292 87.82059179 67.54996764 87.80889596 69.87133789 87.79223633 C71.19004883 87.78984955 72.50875977 87.78746277 73.86743164 87.78500366 C78.97620726 87.23930228 82.22987646 85.65822106 85.77563477 81.96459961 C88.185672 76.78969046 88.00627528 72.07920472 87.96508789 66.43530273 C87.96891479 65.28163208 87.9727417 64.12796143 87.97668457 62.93933105 C87.97940114 60.50519943 87.97205794 58.07103849 87.95532227 55.63696289 C87.93391088 51.91673536 87.95513459 48.19843913 87.98071289 44.47827148 C87.97806957 42.10977765 87.97294451 39.74128501 87.96508789 37.37280273 C87.97318481 36.26328247 87.98128174 35.15376221 87.98962402 34.01062012 C87.91537958 27.87916807 87.69890053 23.97725206 83.43383789 19.40405273 C79.77873125 16.90706837 75.98262427 17.11482918 71.71533203 17.12939453 C70.94249374 17.1242836 70.16965546 17.11917267 69.37339783 17.11390686 C66.82185088 17.10002102 64.27057435 17.10096683 61.71899414 17.10327148 C59.94306844 17.09938404 58.16714366 17.09504926 56.39122009 17.09028625 C52.66979966 17.08282625 48.94847409 17.08311376 45.22705078 17.08837891 C40.46100304 17.09417368 35.69534389 17.07724138 30.92936039 17.05403423 C27.26189406 17.03929386 23.59452126 17.0384256 19.92703056 17.04154396 C18.16997953 17.04103092 16.41292324 17.03579629 14.65590096 17.02573204 C12.19759072 17.01337876 9.74003665 17.02015226 7.28173828 17.03173828 C6.1960405 17.02027267 6.1960405 17.02027267 5.08840942 17.00857544 C0.68919015 17.0543428 -2.13090849 17.6064002 -5.56616211 20.40405273 Z " fill="#09090D" transform="translate(24.566162109375,9.595947265625)"/>
<path d="M0 0 C0.77137802 -0.00686325 1.54275604 -0.0137265 2.33750916 -0.02079773 C4.87892234 -0.03904902 7.41971719 -0.0352307 9.96118164 -0.02954102 C11.73328349 -0.0341037 13.50538357 -0.03940954 15.27748108 -0.04542542 C18.98877152 -0.05435328 22.69984673 -0.0519372 26.41113281 -0.04199219 C31.16036773 -0.03050415 35.90885895 -0.05071286 40.65799618 -0.07990932 C44.31694739 -0.0982812 47.97572072 -0.09797689 51.6347065 -0.0922718 C53.38535162 -0.0921187 55.13600889 -0.09815379 56.88661003 -0.11056328 C59.33763764 -0.12549017 61.78729565 -0.11478485 64.23828125 -0.09765625 C64.95691345 -0.10732422 65.67554565 -0.11699219 66.41595459 -0.12695312 C71.44945918 -0.05352756 74.35247811 1.16998961 78.18383789 4.40405273 C80.31272127 7.42200983 80.44399818 9.98520991 80.47436523 13.62817383 C80.48712494 14.66960541 80.49988464 15.71103699 80.51303101 16.7840271 C80.51525665 17.90386993 80.5174823 19.02371277 80.51977539 20.17749023 C80.52976059 21.91224106 80.52976059 21.91224106 80.53994751 23.68203735 C80.55007113 26.12809662 80.55476462 28.57418348 80.55444336 31.02026367 C80.55881332 34.75803265 80.59512937 38.4946179 80.63305664 42.23217773 C80.63892548 44.60977787 80.64289442 46.9873836 80.64477539 49.36499023 C80.65914642 50.48078461 80.67351746 51.59657898 80.68832397 52.7461853 C80.65317313 58.73143682 80.54571562 62.87695924 76.18383789 67.40405273 C71.53146321 70.23643624 68.03204395 70.78244331 62.62133789 70.79223633 C61.52257324 70.80012177 61.52257324 70.80012177 60.40161133 70.8081665 C57.99546587 70.82130227 55.58998934 70.81265165 53.18383789 70.80249023 C51.50284702 70.80451283 49.82185701 70.80742581 48.14086914 70.81118774 C44.62385678 70.81560238 41.10707354 70.80920787 37.59008789 70.79516602 C33.09096029 70.77807454 28.59236964 70.78792035 24.09326172 70.80588341 C20.6239012 70.81674457 17.15466715 70.81326423 13.68530273 70.80550003 C12.02677344 70.80350447 10.36823251 70.80593462 8.7097168 70.81293869 C6.38828286 70.82059179 4.06770814 70.80889596 1.74633789 70.79223633 C0.42762695 70.78984955 -0.89108398 70.78746277 -2.24975586 70.78500366 C-7.35805154 70.23935355 -10.61156032 68.65658264 -14.16015625 64.96679688 C-16.57187693 59.77820187 -16.36936035 55.05599923 -16.31225586 49.40014648 C-16.31371109 48.24410416 -16.31516632 47.08806183 -16.31666565 45.89698792 C-16.31500906 43.45864333 -16.30347487 41.02028802 -16.28271484 38.58203125 C-16.25373572 34.85102949 -16.26211713 31.12144703 -16.27514648 27.39038086 C-16.26890954 25.01862917 -16.26051895 22.64688196 -16.24975586 20.27514648 C-16.2526915 19.16046494 -16.25562714 18.04578339 -16.25865173 16.89732361 C-16.24596756 15.85596756 -16.23328339 14.81461151 -16.22021484 13.74169922 C-16.21481186 12.8293602 -16.20940887 11.91702118 -16.20384216 10.97703552 C-15.5687153 6.76177998 -13.90319524 4.28754765 -10.61717224 1.61680603 C-7.04358467 0.0695499 -3.82548751 -0.02389627 0 0 Z M-6.81616211 10.40405273 C-7.26729302 12.56543597 -7.26729302 12.56543597 -7.18847656 15.09741211 C-7.19470535 16.07182251 -7.20093414 17.04623291 -7.20735168 18.0501709 C-7.19814194 19.1053894 -7.18893219 20.16060791 -7.17944336 21.24780273 C-7.17994186 22.32783569 -7.18044037 23.40786865 -7.18095398 24.52062988 C-7.17861047 26.80714759 -7.1688658 29.09366774 -7.15234375 31.38012695 C-7.12875898 34.88963777 -7.13177989 38.39838914 -7.13842773 41.90795898 C-7.13285106 44.12541145 -7.12574126 46.34286071 -7.11694336 48.56030273 C-7.11785477 49.61552124 -7.11876617 50.67073975 -7.1197052 51.75793457 C-7.11017319 52.73234497 -7.10064117 53.70675537 -7.09082031 54.71069336 C-7.08621292 55.57069946 -7.08160553 56.43070557 -7.07685852 57.31677246 C-7.00563827 59.62392335 -7.00563827 59.62392335 -4.81616211 61.40405273 C-1.63860622 61.71929144 -1.63860622 61.71929144 2.15625 61.67871094 C2.8734874 61.68382187 3.59072479 61.6889328 4.32969666 61.69419861 C6.70694258 61.70812902 9.08389969 61.70713526 11.46118164 61.70483398 C13.11023568 61.70871913 14.75928872 61.71305342 16.40834045 61.71781921 C19.86763754 61.72528891 23.32683259 61.72498483 26.78613281 61.71972656 C31.22287151 61.71393195 35.65919274 61.73085885 40.09586239 61.75407124 C43.50247141 61.7687917 46.90897951 61.76968258 50.3156147 61.76656151 C51.95151153 61.76707561 53.58741388 61.77232994 55.22327995 61.78237343 C57.5098075 61.79468775 59.79551714 61.78797695 62.08203125 61.77636719 C63.38393906 61.77699661 64.68584686 61.77762604 66.02720642 61.77827454 C69.11737919 61.64711162 69.11737919 61.64711162 71.10244751 60.16201782 C72.47201036 57.93558441 72.57022918 56.51432309 72.58789062 53.90429688 C72.6005748 52.99647964 72.61325897 52.08866241 72.62632751 51.15333557 C72.62339188 50.1751738 72.62045624 49.19701202 72.61743164 48.18920898 C72.62267349 47.18192245 72.62791534 46.17463593 72.63331604 45.13682556 C72.63974124 43.00593996 72.63839284 40.87501892 72.62988281 38.74414062 C72.62137907 35.48234898 72.65011816 32.22231162 72.68188477 28.96069336 C72.68349699 26.89103243 72.68291885 24.82136839 72.67993164 22.75170898 C72.69116562 21.77557144 72.7023996 20.7994339 72.713974 19.79371643 C72.70459305 18.88274704 72.6952121 17.97177765 72.68554688 17.03320312 C72.68538071 16.23394913 72.68521454 15.43469513 72.68504333 14.61122131 C71.96363027 11.43431995 70.81270772 10.30547315 68.18383789 8.40405273 C64.89887573 7.81091911 64.89887573 7.81091911 61.16796875 7.91821289 C60.12093529 7.91251785 60.12093529 7.91251785 59.05274963 7.90670776 C56.75093307 7.89931242 54.45038553 7.92066638 52.14868164 7.94311523 C50.54732919 7.94550015 48.9459739 7.94640488 47.34461975 7.94589233 C43.99128665 7.94901845 40.63838167 7.96557015 37.28515625 7.99243164 C32.98528258 8.02643883 28.6858786 8.03405934 24.38588619 8.03254128 C21.08048513 8.03308487 17.7751869 8.04404985 14.46982002 8.05854416 C12.88417908 8.06491102 11.29852649 8.06885079 9.71287346 8.07033157 C7.49848414 8.07466431 5.28459455 8.09216323 3.0703125 8.11352539 C1.80996689 8.12114899 0.54962128 8.12877258 -0.74891663 8.1366272 C-3.9878522 8.17160521 -3.9878522 8.17160521 -6.81616211 10.40405273 Z " fill="#6164EE" transform="translate(31.816162109375,26.595947265625)"/>
<path d="M0 0 C0.79289932 -0.00570007 1.58579865 -0.01140015 2.40272522 -0.01727295 C4.08316711 -0.02673598 5.76362767 -0.03326209 7.4440918 -0.03710938 C10.02099802 -0.04682164 12.5971091 -0.0778344 15.17382812 -0.109375 C16.80338066 -0.11590407 18.43293892 -0.12115492 20.0625 -0.125 C21.22349464 -0.1435202 21.22349464 -0.1435202 22.40794373 -0.16241455 C24.58178711 -0.15332031 24.58178711 -0.15332031 28.09765625 0.203125 C30.09765625 3.203125 30.09765625 3.203125 29.84765625 5.265625 C29.09765625 7.203125 29.09765625 7.203125 27.09765625 9.203125 C24.55192065 9.41497148 22.11764987 9.50711308 19.5703125 9.50390625 C18.45323158 9.51033394 18.45323158 9.51033394 17.31358337 9.51689148 C15.73746762 9.52263782 14.16132535 9.5231328 12.58520508 9.51879883 C10.17287933 9.51564165 7.76178313 9.53908256 5.34960938 9.56445312 C3.81901197 9.56672637 2.28841125 9.56742949 0.7578125 9.56640625 C-0.3251133 9.58022087 -0.3251133 9.58022087 -1.42991638 9.59431458 C-4.38301087 9.56702442 -6.41603031 9.53441822 -8.89672852 7.84448242 C-9.90234375 6.203125 -9.90234375 6.203125 -9.65234375 3.578125 C-8.11942639 -1.27611332 -4.43066021 0.02426452 0 0 Z " fill="#6265EF" transform="translate(42.90234375,52.796875)"/>
<path d="M0 0 C1.05617271 -0.0049926 1.05617271 -0.0049926 2.13368225 -0.01008606 C3.62581731 -0.0151578 5.11796375 -0.01749431 6.61010742 -0.01733398 C8.89716232 -0.01951884 11.18373378 -0.03766674 13.47070312 -0.05664062 C14.91796709 -0.05957479 16.36523336 -0.06155943 17.8125 -0.0625 C18.49900131 -0.06968552 19.18550262 -0.07687103 19.89280701 -0.08427429 C24.74383256 -0.06085494 24.74383256 -0.06085494 26.97265625 2.16796875 C26.41710069 6.72352431 26.41710069 6.72352431 24.97265625 8.16796875 C20.5726668 8.38629864 16.16730813 8.35376021 11.76245117 8.35327148 C9.54781843 8.35545626 7.33368502 8.37360406 5.11914062 8.39257812 C3.71744963 8.39551231 2.31575625 8.39749694 0.9140625 8.3984375 C-0.36782959 8.40254639 -1.64972168 8.40665527 -2.97045898 8.41088867 C-6.02734375 8.16796875 -6.02734375 8.16796875 -8.02734375 6.16796875 C-8.21484375 3.60546875 -8.21484375 3.60546875 -8.02734375 1.16796875 C-6.11444757 -0.74492743 -2.60510292 0.00421048 0 0 Z " fill="#6265F0" transform="translate(68.02734375,70.83203125)"/>
<path d="M0 0 C2.85121184 0.50718672 4.27799671 1.54902722 6.4375 3.43359375 C5.5625 8.30859375 5.5625 8.30859375 4.4375 9.43359375 C2.08436445 9.50631116 -0.27083668 9.51730243 -2.625 9.49609375 C-3.91535156 9.48707031 -5.20570312 9.47804688 -6.53515625 9.46875 C-7.53417969 9.45714844 -8.53320312 9.44554688 -9.5625 9.43359375 C-10.2225 7.78359375 -10.8825 6.13359375 -11.5625 4.43359375 C-8.38787879 -0.1840371 -5.17334762 -0.0078862 0 0 Z " fill="#5F62E7" transform="translate(44.5625,69.56640625)"/>
<path d="M0 0 C0.7940625 -0.01675781 1.588125 -0.03351562 2.40625 -0.05078125 C3.0971875 0.06910156 3.788125 0.18898437 4.5 0.3125 C6.5 3.3125 6.5 3.3125 6.25 5.375 C5.5 7.3125 5.5 7.3125 3.5 9.3125 C-0.83643601 9.62787716 -2.82653229 9.76147847 -6.5 7.3125 C-6.8125 4.8125 -6.8125 4.8125 -6.5 2.3125 C-4.07477793 -0.11272207 -3.3279321 0.01620746 0 0 Z " fill="#6164EE" transform="translate(88.5,52.6875)"/>
</svg>
